<mxfile host="65bd71144e">
    <diagram id="4QApcjyfDVh-fbjmfADi" name="Page-1">
        <mxGraphModel dx="2553" dy="1110" grid="1" gridSize="10" guides="1" tooltips="1" connect="1" arrows="1" fold="1" page="1" pageScale="1" pageWidth="850" pageHeight="1100" math="0" shadow="0">
            <root>
                <mxCell id="0"/>
                <mxCell id="1" parent="0"/>
                <mxCell id="2" value="" style="verticalLabelPosition=bottom;verticalAlign=top;html=1;shape=mxgraph.basic.rect;fillColor2=none;strokeWidth=1;size=20;indent=5;fillColor=#FFFFFF;strokeColor=#36393d;" vertex="1" parent="1">
                    <mxGeometry x="90" y="140" width="680" height="830" as="geometry"/>
                </mxCell>
                <mxCell id="3" value="&lt;p style=&quot;line-height: 1.2&quot;&gt;&lt;span style=&quot;font-size: 24px&quot;&gt;&amp;nbsp; &amp;nbsp;Triangle Types.&lt;/span&gt;&lt;/p&gt;" style="shape=partialRectangle;whiteSpace=wrap;html=1;top=0;left=0;fillColor=#FFFFFF;align=left;fontColor=#000000;strokeColor=#000000;" vertex="1" parent="1">
                    <mxGeometry x="90" y="80" width="680" height="60" as="geometry"/>
                </mxCell>
                <mxCell id="4" value="&lt;h1 style=&quot;padding: 0px ; line-height: 1.35 ; letter-spacing: -0.02em ; margin: 24px 0px 24px 40px ; font-family: &amp;#34;roboto&amp;#34; , &amp;#34;helvetica&amp;#34; , &amp;#34;arial&amp;#34; , sans-serif ; font-weight: 400 ; color: rgba(0 , 0 , 0 , 0.87) ; font-size: 20px&quot;&gt;&lt;font style=&quot;font-size: 20px&quot;&gt;Input the three lengths of your triangle.&lt;/font&gt;&lt;/h1&gt;&lt;div style=&quot;font-size: 20px&quot;&gt;&lt;br&gt;&lt;/div&gt;" style="text;whiteSpace=wrap;html=1;fontSize=24;" vertex="1" parent="1">
                    <mxGeometry x="90" y="277.5" width="445" height="50" as="geometry"/>
                </mxCell>
                <mxCell id="5" value="" style="shape=partialRectangle;whiteSpace=wrap;html=1;top=0;left=0;fillColor=none;fontColor=#000000;strokeColor=#000000;" vertex="1" parent="1">
                    <mxGeometry x="125" y="390" width="235" height="10" as="geometry"/>
                </mxCell>
                <mxCell id="6" value="" style="verticalLabelPosition=bottom;verticalAlign=top;html=1;shape=mxgraph.basic.patternFillRect;fillStyle=diagGrid;step=5;fillStrokeWidth=0.2;fillStrokeColor=#dddddd;" vertex="1" parent="1">
                    <mxGeometry x="120" y="165" width="230" height="125" as="geometry"/>
                </mxCell>
                <mxCell id="7" value="&lt;font face=&quot;helvetica, arial, sans-serif&quot; color=&quot;#000000&quot;&gt;*IMAGE*&lt;/font&gt;" style="text;whiteSpace=wrap;html=1;fontSize=24;strokeWidth=22;" vertex="1" parent="1">
                    <mxGeometry x="180" y="200" width="155" height="77.5" as="geometry"/>
                </mxCell>
                <mxCell id="8" value="&lt;font style=&quot;font-size: 14px&quot; color=&quot;#000000&quot;&gt;COMMIT&lt;/font&gt;" style="labelPosition=center;verticalLabelPosition=middle;align=center;html=1;shape=mxgraph.basic.shaded_button;dx=10;fontSize=24;" vertex="1" parent="1">
                    <mxGeometry x="125" y="550" width="100" height="40" as="geometry"/>
                </mxCell>
                <mxCell id="23" value="&lt;p style=&quot;padding: 0px; font-weight: 400; line-height: 24px; font-size: 21px; letter-spacing: normal; margin: 0px 0px 16px; color: rgba(0, 0, 0, 0.87); font-family: helvetica, arial, sans-serif; font-style: normal; text-indent: 0px; text-transform: none; word-spacing: 0px;&quot;&gt;Enter the first length:&lt;/p&gt;&lt;form action=&quot;https://evgeny-vovk.github.io/ICS2O-Unit5-05-HTML/&quot; style=&quot;color: rgba(0, 0, 0, 0.87); font-family: helvetica, arial, sans-serif; font-size: 14px; font-style: normal; font-weight: 400; letter-spacing: normal; text-indent: 0px; text-transform: none; word-spacing: 0px;&quot;&gt;&lt;div class=&quot;mdl-textfield mdl-js-textfield is-upgraded is-dirty&quot; style=&quot;position: relative ; font-size: 16px ; display: inline-block ; box-sizing: border-box ; width: 300px ; max-width: 100% ; margin: 0px ; padding: 20px 0px&quot;&gt;&lt;/div&gt;&lt;/form&gt;&lt;br class=&quot;Apple-interchange-newline&quot;&gt;" style="text;whiteSpace=wrap;html=1;fontSize=20;" vertex="1" parent="1">
                    <mxGeometry x="120" y="350" width="210" height="30" as="geometry"/>
                </mxCell>
                <mxCell id="24" value="" style="shape=partialRectangle;whiteSpace=wrap;html=1;top=0;left=0;fillColor=none;fontColor=#000000;strokeColor=#000000;" vertex="1" parent="1">
                    <mxGeometry x="125" y="450" width="235" height="10" as="geometry"/>
                </mxCell>
                <mxCell id="25" value="&lt;p style=&quot;padding: 0px ; font-weight: 400 ; line-height: 24px ; font-size: 21px ; letter-spacing: normal ; margin: 0px 0px 16px ; color: rgba(0 , 0 , 0 , 0.87) ; font-family: &amp;#34;helvetica&amp;#34; , &amp;#34;arial&amp;#34; , sans-serif ; font-style: normal ; text-indent: 0px ; text-transform: none ; word-spacing: 0px&quot;&gt;Enter the second length:&lt;/p&gt;&lt;form action=&quot;https://evgeny-vovk.github.io/ICS2O-Unit5-05-HTML/&quot; style=&quot;color: rgba(0 , 0 , 0 , 0.87) ; font-family: &amp;#34;helvetica&amp;#34; , &amp;#34;arial&amp;#34; , sans-serif ; font-size: 14px ; font-style: normal ; font-weight: 400 ; letter-spacing: normal ; text-indent: 0px ; text-transform: none ; word-spacing: 0px&quot;&gt;&lt;div class=&quot;mdl-textfield mdl-js-textfield is-upgraded is-dirty&quot; style=&quot;position: relative ; font-size: 16px ; display: inline-block ; box-sizing: border-box ; width: 300px ; max-width: 100% ; margin: 0px ; padding: 20px 0px&quot;&gt;&lt;/div&gt;&lt;/form&gt;" style="text;whiteSpace=wrap;html=1;fontSize=20;" vertex="1" parent="1">
                    <mxGeometry x="120" y="410" width="220" height="30" as="geometry"/>
                </mxCell>
                <mxCell id="26" value="" style="shape=partialRectangle;whiteSpace=wrap;html=1;top=0;left=0;fillColor=none;fontColor=#000000;strokeColor=#000000;" vertex="1" parent="1">
                    <mxGeometry x="125" y="510" width="235" height="10" as="geometry"/>
                </mxCell>
                <mxCell id="27" value="&lt;p style=&quot;padding: 0px ; font-weight: 400 ; line-height: 24px ; font-size: 21px ; letter-spacing: normal ; margin: 0px 0px 16px ; color: rgba(0 , 0 , 0 , 0.87) ; font-family: &amp;#34;helvetica&amp;#34; , &amp;#34;arial&amp;#34; , sans-serif ; font-style: normal ; text-indent: 0px ; text-transform: none ; word-spacing: 0px&quot;&gt;Enter the third length:&lt;/p&gt;&lt;form action=&quot;https://evgeny-vovk.github.io/ICS2O-Unit5-05-HTML/&quot; style=&quot;color: rgba(0 , 0 , 0 , 0.87) ; font-family: &amp;#34;helvetica&amp;#34; , &amp;#34;arial&amp;#34; , sans-serif ; font-size: 14px ; font-style: normal ; font-weight: 400 ; letter-spacing: normal ; text-indent: 0px ; text-transform: none ; word-spacing: 0px&quot;&gt;&lt;div class=&quot;mdl-textfield mdl-js-textfield is-upgraded is-dirty&quot; style=&quot;position: relative ; font-size: 16px ; display: inline-block ; box-sizing: border-box ; width: 300px ; max-width: 100% ; margin: 0px ; padding: 20px 0px&quot;&gt;&lt;/div&gt;&lt;/form&gt;" style="text;whiteSpace=wrap;html=1;fontSize=20;" vertex="1" parent="1">
                    <mxGeometry x="120" y="470" width="210" height="30" as="geometry"/>
                </mxCell>
            </root>
        </mxGraphModel>
    </diagram>
</mxfile>